<?xml version="1.0" encoding="utf-8" standalone="no"?>
<!DOCTYPE svg PUBLIC "-//W3C//DTD SVG 1.1//EN"
  "http://www.w3.org/Graphics/SVG/1.1/DTD/svg11.dtd">
<svg xmlns:xlink="http://www.w3.org/1999/xlink" width="499.421531pt" height="394.993125pt" viewBox="0 0 499.421531 394.993125" xmlns="http://www.w3.org/2000/svg" version="1.1">
 <metadata>
  <rdf:RDF xmlns:dc="http://purl.org/dc/elements/1.1/" xmlns:cc="http://creativecommons.org/ns#" xmlns:rdf="http://www.w3.org/1999/02/22-rdf-syntax-ns#">
   <cc:Work>
    <dc:type rdf:resource="http://purl.org/dc/dcmitype/StillImage"/>
    <dc:date>2024-09-09T11:13:50.461607</dc:date>
    <dc:format>image/svg+xml</dc:format>
    <dc:creator>
     <cc:Agent>
      <dc:title>Matplotlib v3.5.2, https://matplotlib.org/</dc:title>
     </cc:Agent>
    </dc:creator>
   </cc:Work>
  </rdf:RDF>
 </metadata>
 <defs>
  <style type="text/css">*{stroke-linejoin: round; stroke-linecap: butt}</style>
 </defs>
 <g id="figure_1">
  <g id="patch_1">
   <path d="M 0 394.993125 
L 499.421531 394.993125 
L 499.421531 0 
L 0 0 
L 0 394.993125 
z
" style="fill: none"/>
  </g>
  <g id="axes_1">
   <g id="patch_2">
    <path d="M 394.347031 197.496562 
C 394.347031 174.98097 389.91195 152.684313 381.295606 131.882618 
C 372.679262 111.080923 360.04922 92.17873 344.128292 76.257802 
C 328.207364 60.336873 309.305171 47.706832 288.503476 39.090488 
C 267.701781 30.474143 245.405124 26.039062 222.889531 26.039062 
C 200.373939 26.039062 178.077282 30.474143 157.275587 39.090488 
C 136.473891 47.706832 117.571699 60.336873 101.65077 76.257802 
C 85.729842 92.17873 73.099801 111.080923 64.483456 131.882618 
C 55.867112 152.684313 51.432031 174.98097 51.432031 197.496562 
C 51.432031 220.012155 55.867112 242.308812 64.483456 263.110507 
C 73.099801 283.912202 85.729842 302.814395 101.65077 318.735323 
C 117.571699 334.656252 136.473891 347.286293 157.275587 355.902637 
C 178.077282 364.518982 200.373939 368.954062 222.889531 368.954062 
C 245.405124 368.954062 267.701781 364.518982 288.503476 355.902637 
C 309.305171 347.286293 328.207364 334.656252 344.128292 318.735323 
C 360.04922 302.814395 372.679262 283.912202 381.295606 263.110507 
C 389.91195 242.308812 394.347031 220.012155 394.347031 197.496563 
M 222.889531 197.496562 
C 222.889531 197.496562 222.889531 197.496562 222.889531 197.496562 
C 222.889531 197.496562 222.889531 197.496562 222.889531 197.496562 
C 222.889531 197.496562 222.889531 197.496562 222.889531 197.496562 
C 222.889531 197.496562 222.889531 197.496562 222.889531 197.496562 
C 222.889531 197.496562 222.889531 197.496562 222.889531 197.496562 
C 222.889531 197.496562 222.889531 197.496562 222.889531 197.496562 
C 222.889531 197.496562 222.889531 197.496562 222.889531 197.496562 
C 222.889531 197.496562 222.889531 197.496562 222.889531 197.496562 
C 222.889531 197.496562 222.889531 197.496562 222.889531 197.496562 
C 222.889531 197.496562 222.889531 197.496562 222.889531 197.496562 
C 222.889531 197.496562 222.889531 197.496562 222.889531 197.496562 
C 222.889531 197.496562 222.889531 197.496562 222.889531 197.496562 
C 222.889531 197.496562 222.889531 197.496562 222.889531 197.496562 
C 222.889531 197.496562 222.889531 197.496562 222.889531 197.496562 
C 222.889531 197.496562 222.889531 197.496562 222.889531 197.496562 
C 222.889531 197.496562 222.889531 197.496562 222.889531 197.496562 
M 394.347031 197.496562 
z
" style="fill: #ffffff"/>
   </g>
   <g id="patch_3">
    <path d="M 378.842431 197.496562 
L 329.856624 90.52947 
L 222.889531 66.496126 
L 129.155481 103.762512 
L 59.596674 197.496562 
L 136.802837 283.583257 
L 222.889531 353.449463 
L 322.964414 297.571445 
z
" clip-path="url(#pb77019e5bd)" style="fill: #66c2a5; opacity: 0.25; stroke: #66c2a5; stroke-linejoin: miter"/>
   </g>
   <g id="patch_4">
    <path d="M 336.735148 197.496562 
L 270.307933 150.078161 
L 222.889531 124.198699 
L 132.463742 107.070773 
L 118.536699 197.496562 
L 191.461056 228.925038 
L 222.889531 323.818412 
L 305.871734 280.478766 
z
" clip-path="url(#pb77019e5bd)" style="fill: #fc8d62; opacity: 0.25; stroke: #fc8d62; stroke-linejoin: miter"/>
   </g>
   <g id="patch_5">
    <path d="M 326.59821 197.496562 
L 285.746483 134.639611 
L 222.889531 135.115402 
L 182.639027 157.246059 
L 173.611805 197.496562 
L 176.430046 243.956048 
L 222.889531 285.609951 
L 306.6988 281.305831 
z
" clip-path="url(#pb77019e5bd)" style="fill: #8da0cb; opacity: 0.25; stroke: #8da0cb; stroke-linejoin: miter"/>
   </g>
   <g id="patch_6">
    <path d="M 293.848101 197.496562 
L 308.904307 111.481787 
L 222.889531 197.496562 
L 133.015118 107.62215 
L 95.347181 197.496562 
L 222.889531 197.496562 
L 222.889531 271.57419 
L 270.307933 244.914964 
z
" clip-path="url(#pb77019e5bd)" style="fill: #e78ac3; opacity: 0.25; stroke: #e78ac3; stroke-linejoin: miter"/>
   </g>
   <g id="patch_7">
    <path d="M 336.735148 197.496562 
L 270.307933 150.078161 
L 222.889531 124.198699 
L 132.463742 107.070773 
L 118.536699 197.496562 
L 191.461056 228.925038 
L 222.889531 323.818412 
L 305.871734 280.478766 
z
" clip-path="url(#pb77019e5bd)" style="fill: #ffa500; opacity: 0.25; stroke: #ffa500; stroke-linejoin: miter"/>
   </g>
   <g id="matplotlib.axis_1">
    <g id="xtick_1">
     <g id="line2d_1">
      <path d="M 222.889531 197.496562 
L 394.347031 197.496562 
" clip-path="url(#pb77019e5bd)" style="fill: none; stroke: #b0b0b0; stroke-width: 0.8; stroke-linecap: square"/>
     </g>
     <g id="text_1">
      <!-- Fidelity -->
      <g transform="translate(390.49625 200.255937)scale(0.1 -0.1)">
       <defs>
        <path id="DejaVuSans-46" d="M 628 4666 
L 3309 4666 
L 3309 4134 
L 1259 4134 
L 1259 2759 
L 3109 2759 
L 3109 2228 
L 1259 2228 
L 1259 0 
L 628 0 
L 628 4666 
z
" transform="scale(0.015625)"/>
        <path id="DejaVuSans-69" d="M 603 3500 
L 1178 3500 
L 1178 0 
L 603 0 
L 603 3500 
z
M 603 4863 
L 1178 4863 
L 1178 4134 
L 603 4134 
L 603 4863 
z
" transform="scale(0.015625)"/>
        <path id="DejaVuSans-64" d="M 2906 2969 
L 2906 4863 
L 3481 4863 
L 3481 0 
L 2906 0 
L 2906 525 
Q 2725 213 2448 61 
Q 2172 -91 1784 -91 
Q 1150 -91 751 415 
Q 353 922 353 1747 
Q 353 2572 751 3078 
Q 1150 3584 1784 3584 
Q 2172 3584 2448 3432 
Q 2725 3281 2906 2969 
z
M 947 1747 
Q 947 1113 1208 752 
Q 1469 391 1925 391 
Q 2381 391 2643 752 
Q 2906 1113 2906 1747 
Q 2906 2381 2643 2742 
Q 2381 3103 1925 3103 
Q 1469 3103 1208 2742 
Q 947 2381 947 1747 
z
" transform="scale(0.015625)"/>
        <path id="DejaVuSans-65" d="M 3597 1894 
L 3597 1613 
L 953 1613 
Q 991 1019 1311 708 
Q 1631 397 2203 397 
Q 2534 397 2845 478 
Q 3156 559 3463 722 
L 3463 178 
Q 3153 47 2828 -22 
Q 2503 -91 2169 -91 
Q 1331 -91 842 396 
Q 353 884 353 1716 
Q 353 2575 817 3079 
Q 1281 3584 2069 3584 
Q 2775 3584 3186 3129 
Q 3597 2675 3597 1894 
z
M 3022 2063 
Q 3016 2534 2758 2815 
Q 2500 3097 2075 3097 
Q 1594 3097 1305 2825 
Q 1016 2553 972 2059 
L 3022 2063 
z
" transform="scale(0.015625)"/>
        <path id="DejaVuSans-6c" d="M 603 4863 
L 1178 4863 
L 1178 0 
L 603 0 
L 603 4863 
z
" transform="scale(0.015625)"/>
        <path id="DejaVuSans-74" d="M 1172 4494 
L 1172 3500 
L 2356 3500 
L 2356 3053 
L 1172 3053 
L 1172 1153 
Q 1172 725 1289 603 
Q 1406 481 1766 481 
L 2356 481 
L 2356 0 
L 1766 0 
Q 1100 0 847 248 
Q 594 497 594 1153 
L 594 3053 
L 172 3053 
L 172 3500 
L 594 3500 
L 594 4494 
L 1172 4494 
z
" transform="scale(0.015625)"/>
        <path id="DejaVuSans-79" d="M 2059 -325 
Q 1816 -950 1584 -1140 
Q 1353 -1331 966 -1331 
L 506 -1331 
L 506 -850 
L 844 -850 
Q 1081 -850 1212 -737 
Q 1344 -625 1503 -206 
L 1606 56 
L 191 3500 
L 800 3500 
L 1894 763 
L 2988 3500 
L 3597 3500 
L 2059 -325 
z
" transform="scale(0.015625)"/>
       </defs>
       <use xlink:href="#DejaVuSans-46"/>
       <use xlink:href="#DejaVuSans-69" x="50.269531"/>
       <use xlink:href="#DejaVuSans-64" x="78.052734"/>
       <use xlink:href="#DejaVuSans-65" x="141.529297"/>
       <use xlink:href="#DejaVuSans-6c" x="203.052734"/>
       <use xlink:href="#DejaVuSans-69" x="230.835938"/>
       <use xlink:href="#DejaVuSans-74" x="258.619141"/>
       <use xlink:href="#DejaVuSans-79" x="297.828125"/>
      </g>
     </g>
    </g>
    <g id="xtick_2">
     <g id="line2d_2">
      <path d="M 222.889531 197.496562 
L 344.128292 76.257802 
" clip-path="url(#pb77019e5bd)" style="fill: none; stroke: #b0b0b0; stroke-width: 0.8; stroke-linecap: square"/>
     </g>
     <g id="text_2">
      <!-- Simplicity -->
      <g transform="translate(329.584037 69.117682)scale(0.1 -0.1)">
       <defs>
        <path id="DejaVuSans-53" d="M 3425 4513 
L 3425 3897 
Q 3066 4069 2747 4153 
Q 2428 4238 2131 4238 
Q 1616 4238 1336 4038 
Q 1056 3838 1056 3469 
Q 1056 3159 1242 3001 
Q 1428 2844 1947 2747 
L 2328 2669 
Q 3034 2534 3370 2195 
Q 3706 1856 3706 1288 
Q 3706 609 3251 259 
Q 2797 -91 1919 -91 
Q 1588 -91 1214 -16 
Q 841 59 441 206 
L 441 856 
Q 825 641 1194 531 
Q 1563 422 1919 422 
Q 2459 422 2753 634 
Q 3047 847 3047 1241 
Q 3047 1584 2836 1778 
Q 2625 1972 2144 2069 
L 1759 2144 
Q 1053 2284 737 2584 
Q 422 2884 422 3419 
Q 422 4038 858 4394 
Q 1294 4750 2059 4750 
Q 2388 4750 2728 4690 
Q 3069 4631 3425 4513 
z
" transform="scale(0.015625)"/>
        <path id="DejaVuSans-6d" d="M 3328 2828 
Q 3544 3216 3844 3400 
Q 4144 3584 4550 3584 
Q 5097 3584 5394 3201 
Q 5691 2819 5691 2113 
L 5691 0 
L 5113 0 
L 5113 2094 
Q 5113 2597 4934 2840 
Q 4756 3084 4391 3084 
Q 3944 3084 3684 2787 
Q 3425 2491 3425 1978 
L 3425 0 
L 2847 0 
L 2847 2094 
Q 2847 2600 2669 2842 
Q 2491 3084 2119 3084 
Q 1678 3084 1418 2786 
Q 1159 2488 1159 1978 
L 1159 0 
L 581 0 
L 581 3500 
L 1159 3500 
L 1159 2956 
Q 1356 3278 1631 3431 
Q 1906 3584 2284 3584 
Q 2666 3584 2933 3390 
Q 3200 3197 3328 2828 
z
" transform="scale(0.015625)"/>
        <path id="DejaVuSans-70" d="M 1159 525 
L 1159 -1331 
L 581 -1331 
L 581 3500 
L 1159 3500 
L 1159 2969 
Q 1341 3281 1617 3432 
Q 1894 3584 2278 3584 
Q 2916 3584 3314 3078 
Q 3713 2572 3713 1747 
Q 3713 922 3314 415 
Q 2916 -91 2278 -91 
Q 1894 -91 1617 61 
Q 1341 213 1159 525 
z
M 3116 1747 
Q 3116 2381 2855 2742 
Q 2594 3103 2138 3103 
Q 1681 3103 1420 2742 
Q 1159 2381 1159 1747 
Q 1159 1113 1420 752 
Q 1681 391 2138 391 
Q 2594 391 2855 752 
Q 3116 1113 3116 1747 
z
" transform="scale(0.015625)"/>
        <path id="DejaVuSans-63" d="M 3122 3366 
L 3122 2828 
Q 2878 2963 2633 3030 
Q 2388 3097 2138 3097 
Q 1578 3097 1268 2742 
Q 959 2388 959 1747 
Q 959 1106 1268 751 
Q 1578 397 2138 397 
Q 2388 397 2633 464 
Q 2878 531 3122 666 
L 3122 134 
Q 2881 22 2623 -34 
Q 2366 -91 2075 -91 
Q 1284 -91 818 406 
Q 353 903 353 1747 
Q 353 2603 823 3093 
Q 1294 3584 2113 3584 
Q 2378 3584 2631 3529 
Q 2884 3475 3122 3366 
z
" transform="scale(0.015625)"/>
       </defs>
       <use xlink:href="#DejaVuSans-53"/>
       <use xlink:href="#DejaVuSans-69" x="63.476562"/>
       <use xlink:href="#DejaVuSans-6d" x="91.259766"/>
       <use xlink:href="#DejaVuSans-70" x="188.671875"/>
       <use xlink:href="#DejaVuSans-6c" x="252.148438"/>
       <use xlink:href="#DejaVuSans-69" x="279.931641"/>
       <use xlink:href="#DejaVuSans-63" x="307.714844"/>
       <use xlink:href="#DejaVuSans-69" x="362.695312"/>
       <use xlink:href="#DejaVuSans-74" x="390.478516"/>
       <use xlink:href="#DejaVuSans-79" x="429.6875"/>
      </g>
     </g>
    </g>
    <g id="xtick_3">
     <g id="line2d_3">
      <path d="M 222.889531 197.496562 
L 222.889531 26.039062 
" clip-path="url(#pb77019e5bd)" style="fill: none; stroke: #b0b0b0; stroke-width: 0.8; stroke-linecap: square"/>
     </g>
     <g id="text_3">
      <!-- Counterfactual Fidelity -->
      <g transform="translate(166.31375 14.798437)scale(0.1 -0.1)">
       <defs>
        <path id="DejaVuSans-43" d="M 4122 4306 
L 4122 3641 
Q 3803 3938 3442 4084 
Q 3081 4231 2675 4231 
Q 1875 4231 1450 3742 
Q 1025 3253 1025 2328 
Q 1025 1406 1450 917 
Q 1875 428 2675 428 
Q 3081 428 3442 575 
Q 3803 722 4122 1019 
L 4122 359 
Q 3791 134 3420 21 
Q 3050 -91 2638 -91 
Q 1578 -91 968 557 
Q 359 1206 359 2328 
Q 359 3453 968 4101 
Q 1578 4750 2638 4750 
Q 3056 4750 3426 4639 
Q 3797 4528 4122 4306 
z
" transform="scale(0.015625)"/>
        <path id="DejaVuSans-6f" d="M 1959 3097 
Q 1497 3097 1228 2736 
Q 959 2375 959 1747 
Q 959 1119 1226 758 
Q 1494 397 1959 397 
Q 2419 397 2687 759 
Q 2956 1122 2956 1747 
Q 2956 2369 2687 2733 
Q 2419 3097 1959 3097 
z
M 1959 3584 
Q 2709 3584 3137 3096 
Q 3566 2609 3566 1747 
Q 3566 888 3137 398 
Q 2709 -91 1959 -91 
Q 1206 -91 779 398 
Q 353 888 353 1747 
Q 353 2609 779 3096 
Q 1206 3584 1959 3584 
z
" transform="scale(0.015625)"/>
        <path id="DejaVuSans-75" d="M 544 1381 
L 544 3500 
L 1119 3500 
L 1119 1403 
Q 1119 906 1312 657 
Q 1506 409 1894 409 
Q 2359 409 2629 706 
Q 2900 1003 2900 1516 
L 2900 3500 
L 3475 3500 
L 3475 0 
L 2900 0 
L 2900 538 
Q 2691 219 2414 64 
Q 2138 -91 1772 -91 
Q 1169 -91 856 284 
Q 544 659 544 1381 
z
M 1991 3584 
L 1991 3584 
z
" transform="scale(0.015625)"/>
        <path id="DejaVuSans-6e" d="M 3513 2113 
L 3513 0 
L 2938 0 
L 2938 2094 
Q 2938 2591 2744 2837 
Q 2550 3084 2163 3084 
Q 1697 3084 1428 2787 
Q 1159 2491 1159 1978 
L 1159 0 
L 581 0 
L 581 3500 
L 1159 3500 
L 1159 2956 
Q 1366 3272 1645 3428 
Q 1925 3584 2291 3584 
Q 2894 3584 3203 3211 
Q 3513 2838 3513 2113 
z
" transform="scale(0.015625)"/>
        <path id="DejaVuSans-72" d="M 2631 2963 
Q 2534 3019 2420 3045 
Q 2306 3072 2169 3072 
Q 1681 3072 1420 2755 
Q 1159 2438 1159 1844 
L 1159 0 
L 581 0 
L 581 3500 
L 1159 3500 
L 1159 2956 
Q 1341 3275 1631 3429 
Q 1922 3584 2338 3584 
Q 2397 3584 2469 3576 
Q 2541 3569 2628 3553 
L 2631 2963 
z
" transform="scale(0.015625)"/>
        <path id="DejaVuSans-66" d="M 2375 4863 
L 2375 4384 
L 1825 4384 
Q 1516 4384 1395 4259 
Q 1275 4134 1275 3809 
L 1275 3500 
L 2222 3500 
L 2222 3053 
L 1275 3053 
L 1275 0 
L 697 0 
L 697 3053 
L 147 3053 
L 147 3500 
L 697 3500 
L 697 3744 
Q 697 4328 969 4595 
Q 1241 4863 1831 4863 
L 2375 4863 
z
" transform="scale(0.015625)"/>
        <path id="DejaVuSans-61" d="M 2194 1759 
Q 1497 1759 1228 1600 
Q 959 1441 959 1056 
Q 959 750 1161 570 
Q 1363 391 1709 391 
Q 2188 391 2477 730 
Q 2766 1069 2766 1631 
L 2766 1759 
L 2194 1759 
z
M 3341 1997 
L 3341 0 
L 2766 0 
L 2766 531 
Q 2569 213 2275 61 
Q 1981 -91 1556 -91 
Q 1019 -91 701 211 
Q 384 513 384 1019 
Q 384 1609 779 1909 
Q 1175 2209 1959 2209 
L 2766 2209 
L 2766 2266 
Q 2766 2663 2505 2880 
Q 2244 3097 1772 3097 
Q 1472 3097 1187 3025 
Q 903 2953 641 2809 
L 641 3341 
Q 956 3463 1253 3523 
Q 1550 3584 1831 3584 
Q 2591 3584 2966 3190 
Q 3341 2797 3341 1997 
z
" transform="scale(0.015625)"/>
        <path id="DejaVuSans-20" transform="scale(0.015625)"/>
       </defs>
       <use xlink:href="#DejaVuSans-43"/>
       <use xlink:href="#DejaVuSans-6f" x="69.824219"/>
       <use xlink:href="#DejaVuSans-75" x="131.005859"/>
       <use xlink:href="#DejaVuSans-6e" x="194.384766"/>
       <use xlink:href="#DejaVuSans-74" x="257.763672"/>
       <use xlink:href="#DejaVuSans-65" x="296.972656"/>
       <use xlink:href="#DejaVuSans-72" x="358.496094"/>
       <use xlink:href="#DejaVuSans-66" x="399.609375"/>
       <use xlink:href="#DejaVuSans-61" x="434.814453"/>
       <use xlink:href="#DejaVuSans-63" x="496.09375"/>
       <use xlink:href="#DejaVuSans-74" x="551.074219"/>
       <use xlink:href="#DejaVuSans-75" x="590.283203"/>
       <use xlink:href="#DejaVuSans-61" x="653.662109"/>
       <use xlink:href="#DejaVuSans-6c" x="714.941406"/>
       <use xlink:href="#DejaVuSans-20" x="742.724609"/>
       <use xlink:href="#DejaVuSans-46" x="774.511719"/>
       <use xlink:href="#DejaVuSans-69" x="824.78125"/>
       <use xlink:href="#DejaVuSans-64" x="852.564453"/>
       <use xlink:href="#DejaVuSans-65" x="916.041016"/>
       <use xlink:href="#DejaVuSans-6c" x="977.564453"/>
       <use xlink:href="#DejaVuSans-69" x="1005.347656"/>
       <use xlink:href="#DejaVuSans-74" x="1033.130859"/>
       <use xlink:href="#DejaVuSans-79" x="1072.339844"/>
      </g>
     </g>
    </g>
    <g id="xtick_4">
     <g id="line2d_4">
      <path d="M 222.889531 197.496562 
L 101.65077 76.257802 
" clip-path="url(#pb77019e5bd)" style="fill: none; stroke: #b0b0b0; stroke-width: 0.8; stroke-linecap: square"/>
     </g>
     <g id="text_4">
      <!-- Coverage -->
      <g transform="translate(67.794244 69.117682)scale(0.1 -0.1)">
       <defs>
        <path id="DejaVuSans-76" d="M 191 3500 
L 800 3500 
L 1894 563 
L 2988 3500 
L 3597 3500 
L 2284 0 
L 1503 0 
L 191 3500 
z
" transform="scale(0.015625)"/>
        <path id="DejaVuSans-67" d="M 2906 1791 
Q 2906 2416 2648 2759 
Q 2391 3103 1925 3103 
Q 1463 3103 1205 2759 
Q 947 2416 947 1791 
Q 947 1169 1205 825 
Q 1463 481 1925 481 
Q 2391 481 2648 825 
Q 2906 1169 2906 1791 
z
M 3481 434 
Q 3481 -459 3084 -895 
Q 2688 -1331 1869 -1331 
Q 1566 -1331 1297 -1286 
Q 1028 -1241 775 -1147 
L 775 -588 
Q 1028 -725 1275 -790 
Q 1522 -856 1778 -856 
Q 2344 -856 2625 -561 
Q 2906 -266 2906 331 
L 2906 616 
Q 2728 306 2450 153 
Q 2172 0 1784 0 
Q 1141 0 747 490 
Q 353 981 353 1791 
Q 353 2603 747 3093 
Q 1141 3584 1784 3584 
Q 2172 3584 2450 3431 
Q 2728 3278 2906 2969 
L 2906 3500 
L 3481 3500 
L 3481 434 
z
" transform="scale(0.015625)"/>
       </defs>
       <use xlink:href="#DejaVuSans-43"/>
       <use xlink:href="#DejaVuSans-6f" x="69.824219"/>
       <use xlink:href="#DejaVuSans-76" x="131.005859"/>
       <use xlink:href="#DejaVuSans-65" x="190.185547"/>
       <use xlink:href="#DejaVuSans-72" x="251.708984"/>
       <use xlink:href="#DejaVuSans-61" x="292.822266"/>
       <use xlink:href="#DejaVuSans-67" x="354.101562"/>
       <use xlink:href="#DejaVuSans-65" x="417.578125"/>
      </g>
     </g>
    </g>
    <g id="xtick_5">
     <g id="line2d_5">
      <path d="M 222.889531 197.496562 
L 51.432031 197.496562 
" clip-path="url(#pb77019e5bd)" style="fill: none; stroke: #b0b0b0; stroke-width: 0.8; stroke-linecap: square"/>
     </g>
     <g id="text_5">
      <!-- Consistency -->
      <g transform="translate(7.2 200.255937)scale(0.1 -0.1)">
       <defs>
        <path id="DejaVuSans-73" d="M 2834 3397 
L 2834 2853 
Q 2591 2978 2328 3040 
Q 2066 3103 1784 3103 
Q 1356 3103 1142 2972 
Q 928 2841 928 2578 
Q 928 2378 1081 2264 
Q 1234 2150 1697 2047 
L 1894 2003 
Q 2506 1872 2764 1633 
Q 3022 1394 3022 966 
Q 3022 478 2636 193 
Q 2250 -91 1575 -91 
Q 1294 -91 989 -36 
Q 684 19 347 128 
L 347 722 
Q 666 556 975 473 
Q 1284 391 1588 391 
Q 1994 391 2212 530 
Q 2431 669 2431 922 
Q 2431 1156 2273 1281 
Q 2116 1406 1581 1522 
L 1381 1569 
Q 847 1681 609 1914 
Q 372 2147 372 2553 
Q 372 3047 722 3315 
Q 1072 3584 1716 3584 
Q 2034 3584 2315 3537 
Q 2597 3491 2834 3397 
z
" transform="scale(0.015625)"/>
       </defs>
       <use xlink:href="#DejaVuSans-43"/>
       <use xlink:href="#DejaVuSans-6f" x="69.824219"/>
       <use xlink:href="#DejaVuSans-6e" x="131.005859"/>
       <use xlink:href="#DejaVuSans-73" x="194.384766"/>
       <use xlink:href="#DejaVuSans-69" x="246.484375"/>
       <use xlink:href="#DejaVuSans-73" x="274.267578"/>
       <use xlink:href="#DejaVuSans-74" x="326.367188"/>
       <use xlink:href="#DejaVuSans-65" x="365.576172"/>
       <use xlink:href="#DejaVuSans-6e" x="427.099609"/>
       <use xlink:href="#DejaVuSans-63" x="490.478516"/>
       <use xlink:href="#DejaVuSans-79" x="545.458984"/>
      </g>
     </g>
    </g>
    <g id="xtick_6">
     <g id="line2d_6">
      <path d="M 222.889531 197.496562 
L 101.65077 318.735323 
" clip-path="url(#pb77019e5bd)" style="fill: none; stroke: #b0b0b0; stroke-width: 0.8; stroke-linecap: square"/>
     </g>
     <g id="text_6">
      <!-- Representativeness -->
      <g transform="translate(42.517682 331.394193)scale(0.1 -0.1)">
       <defs>
        <path id="DejaVuSans-52" d="M 2841 2188 
Q 3044 2119 3236 1894 
Q 3428 1669 3622 1275 
L 4263 0 
L 3584 0 
L 2988 1197 
Q 2756 1666 2539 1819 
Q 2322 1972 1947 1972 
L 1259 1972 
L 1259 0 
L 628 0 
L 628 4666 
L 2053 4666 
Q 2853 4666 3247 4331 
Q 3641 3997 3641 3322 
Q 3641 2881 3436 2590 
Q 3231 2300 2841 2188 
z
M 1259 4147 
L 1259 2491 
L 2053 2491 
Q 2509 2491 2742 2702 
Q 2975 2913 2975 3322 
Q 2975 3731 2742 3939 
Q 2509 4147 2053 4147 
L 1259 4147 
z
" transform="scale(0.015625)"/>
       </defs>
       <use xlink:href="#DejaVuSans-52"/>
       <use xlink:href="#DejaVuSans-65" x="64.982422"/>
       <use xlink:href="#DejaVuSans-70" x="126.505859"/>
       <use xlink:href="#DejaVuSans-72" x="189.982422"/>
       <use xlink:href="#DejaVuSans-65" x="228.845703"/>
       <use xlink:href="#DejaVuSans-73" x="290.369141"/>
       <use xlink:href="#DejaVuSans-65" x="342.46875"/>
       <use xlink:href="#DejaVuSans-6e" x="403.992188"/>
       <use xlink:href="#DejaVuSans-74" x="467.371094"/>
       <use xlink:href="#DejaVuSans-61" x="506.580078"/>
       <use xlink:href="#DejaVuSans-74" x="567.859375"/>
       <use xlink:href="#DejaVuSans-69" x="607.068359"/>
       <use xlink:href="#DejaVuSans-76" x="634.851562"/>
       <use xlink:href="#DejaVuSans-65" x="694.03125"/>
       <use xlink:href="#DejaVuSans-6e" x="755.554688"/>
       <use xlink:href="#DejaVuSans-65" x="818.933594"/>
       <use xlink:href="#DejaVuSans-73" x="880.457031"/>
       <use xlink:href="#DejaVuSans-73" x="932.556641"/>
      </g>
     </g>
    </g>
    <g id="xtick_7">
     <g id="line2d_7">
      <path d="M 222.889531 197.496562 
L 222.889531 368.954062 
" clip-path="url(#pb77019e5bd)" style="fill: none; stroke: #b0b0b0; stroke-width: 0.8; stroke-linecap: square"/>
     </g>
     <g id="text_7">
      <!-- SHAP Consistency -->
      <g transform="translate(177.698906 385.713437)scale(0.1 -0.1)">
       <defs>
        <path id="DejaVuSans-48" d="M 628 4666 
L 1259 4666 
L 1259 2753 
L 3553 2753 
L 3553 4666 
L 4184 4666 
L 4184 0 
L 3553 0 
L 3553 2222 
L 1259 2222 
L 1259 0 
L 628 0 
L 628 4666 
z
" transform="scale(0.015625)"/>
        <path id="DejaVuSans-41" d="M 2188 4044 
L 1331 1722 
L 3047 1722 
L 2188 4044 
z
M 1831 4666 
L 2547 4666 
L 4325 0 
L 3669 0 
L 3244 1197 
L 1141 1197 
L 716 0 
L 50 0 
L 1831 4666 
z
" transform="scale(0.015625)"/>
        <path id="DejaVuSans-50" d="M 1259 4147 
L 1259 2394 
L 2053 2394 
Q 2494 2394 2734 2622 
Q 2975 2850 2975 3272 
Q 2975 3691 2734 3919 
Q 2494 4147 2053 4147 
L 1259 4147 
z
M 628 4666 
L 2053 4666 
Q 2838 4666 3239 4311 
Q 3641 3956 3641 3272 
Q 3641 2581 3239 2228 
Q 2838 1875 2053 1875 
L 1259 1875 
L 1259 0 
L 628 0 
L 628 4666 
z
" transform="scale(0.015625)"/>
       </defs>
       <use xlink:href="#DejaVuSans-53"/>
       <use xlink:href="#DejaVuSans-48" x="63.476562"/>
       <use xlink:href="#DejaVuSans-41" x="138.671875"/>
       <use xlink:href="#DejaVuSans-50" x="207.080078"/>
       <use xlink:href="#DejaVuSans-20" x="267.382812"/>
       <use xlink:href="#DejaVuSans-43" x="299.169922"/>
       <use xlink:href="#DejaVuSans-6f" x="368.994141"/>
       <use xlink:href="#DejaVuSans-6e" x="430.175781"/>
       <use xlink:href="#DejaVuSans-73" x="493.554688"/>
       <use xlink:href="#DejaVuSans-69" x="545.654297"/>
       <use xlink:href="#DejaVuSans-73" x="573.4375"/>
       <use xlink:href="#DejaVuSans-74" x="625.537109"/>
       <use xlink:href="#DejaVuSans-65" x="664.746094"/>
       <use xlink:href="#DejaVuSans-6e" x="726.269531"/>
       <use xlink:href="#DejaVuSans-63" x="789.648438"/>
       <use xlink:href="#DejaVuSans-79" x="844.628906"/>
      </g>
     </g>
    </g>
    <g id="xtick_8">
     <g id="line2d_8">
      <path d="M 222.889531 197.496562 
L 344.128292 318.735323 
" clip-path="url(#pb77019e5bd)" style="fill: none; stroke: #b0b0b0; stroke-width: 0.8; stroke-linecap: square"/>
     </g>
     <g id="text_8">
      <!-- Hits -->
      <g transform="translate(344.313725 331.394193)scale(0.1 -0.1)">
       <use xlink:href="#DejaVuSans-48"/>
       <use xlink:href="#DejaVuSans-69" x="75.195312"/>
       <use xlink:href="#DejaVuSans-74" x="102.978516"/>
       <use xlink:href="#DejaVuSans-73" x="142.1875"/>
      </g>
     </g>
    </g>
    <g id="xtick_9">
     <g id="line2d_9">
      <path d="M 222.889531 197.496562 
L 394.347031 197.496562 
" clip-path="url(#pb77019e5bd)" style="fill: none; stroke: #b0b0b0; stroke-width: 0.8; stroke-linecap: square"/>
     </g>
     <g id="text_9">
      <!-- Fidelity -->
      <g transform="translate(390.49625 200.255937)scale(0.1 -0.1)">
       <use xlink:href="#DejaVuSans-46"/>
       <use xlink:href="#DejaVuSans-69" x="50.269531"/>
       <use xlink:href="#DejaVuSans-64" x="78.052734"/>
       <use xlink:href="#DejaVuSans-65" x="141.529297"/>
       <use xlink:href="#DejaVuSans-6c" x="203.052734"/>
       <use xlink:href="#DejaVuSans-69" x="230.835938"/>
       <use xlink:href="#DejaVuSans-74" x="258.619141"/>
       <use xlink:href="#DejaVuSans-79" x="297.828125"/>
      </g>
     </g>
    </g>
   </g>
   <g id="matplotlib.axis_2">
    <g id="ytick_1">
     <g id="line2d_10">
      <path d="M 245.11282 197.496562 
C 245.11282 194.578227 244.537971 191.688269 243.421172 188.992078 
C 242.304374 186.295888 240.667344 183.845899 238.603769 181.782325 
C 236.540194 179.71875 234.090206 178.08172 231.394015 176.964921 
C 228.697825 175.848123 225.807867 175.273274 222.889531 175.273274 
C 219.971196 175.273274 217.081237 175.848123 214.385047 176.964921 
C 211.688857 178.08172 209.238868 179.71875 207.175293 181.782325 
C 205.111719 183.845899 203.474689 186.295888 202.35789 188.992078 
C 201.241091 191.688269 200.666243 194.578227 200.666243 197.496562 
C 200.666243 200.414898 201.241091 203.304856 202.35789 206.001047 
C 203.474689 208.697237 205.111719 211.147226 207.175293 213.2108 
C 209.238868 215.274375 211.688857 216.911405 214.385047 218.028204 
C 217.081237 219.145002 219.971196 219.719851 222.889531 219.719851 
C 225.807867 219.719851 228.697825 219.145002 231.394015 218.028204 
C 234.090206 216.911405 236.540194 215.274375 238.603769 213.2108 
C 240.667344 211.147226 242.304374 208.697237 243.421172 206.001047 
C 244.537971 203.304856 245.11282 200.414898 245.11282 197.496562 
" clip-path="url(#pb77019e5bd)" style="fill: none; stroke: #b0b0b0; stroke-width: 0.8; stroke-linecap: square"/>
     </g>
     <g id="text_10">
      <!-- 0.5 -->
      <g transform="translate(243.421172 186.912391)scale(0.1 -0.1)">
       <defs>
        <path id="DejaVuSans-30" d="M 2034 4250 
Q 1547 4250 1301 3770 
Q 1056 3291 1056 2328 
Q 1056 1369 1301 889 
Q 1547 409 2034 409 
Q 2525 409 2770 889 
Q 3016 1369 3016 2328 
Q 3016 3291 2770 3770 
Q 2525 4250 2034 4250 
z
M 2034 4750 
Q 2819 4750 3233 4129 
Q 3647 3509 3647 2328 
Q 3647 1150 3233 529 
Q 2819 -91 2034 -91 
Q 1250 -91 836 529 
Q 422 1150 422 2328 
Q 422 3509 836 4129 
Q 1250 4750 2034 4750 
z
" transform="scale(0.015625)"/>
        <path id="DejaVuSans-2e" d="M 684 794 
L 1344 794 
L 1344 0 
L 684 0 
L 684 794 
z
" transform="scale(0.015625)"/>
        <path id="DejaVuSans-35" d="M 691 4666 
L 3169 4666 
L 3169 4134 
L 1269 4134 
L 1269 2991 
Q 1406 3038 1543 3061 
Q 1681 3084 1819 3084 
Q 2600 3084 3056 2656 
Q 3513 2228 3513 1497 
Q 3513 744 3044 326 
Q 2575 -91 1722 -91 
Q 1428 -91 1123 -41 
Q 819 9 494 109 
L 494 744 
Q 775 591 1075 516 
Q 1375 441 1709 441 
Q 2250 441 2565 725 
Q 2881 1009 2881 1497 
Q 2881 1984 2565 2268 
Q 2250 2553 1709 2553 
Q 1456 2553 1204 2497 
Q 953 2441 691 2322 
L 691 4666 
z
" transform="scale(0.015625)"/>
       </defs>
       <use xlink:href="#DejaVuSans-30"/>
       <use xlink:href="#DejaVuSans-2e" x="63.623047"/>
       <use xlink:href="#DejaVuSans-35" x="95.410156"/>
      </g>
     </g>
    </g>
    <g id="ytick_2">
     <g id="line2d_11">
      <path d="M 267.336108 197.496562 
C 267.336108 191.659892 266.186411 185.879975 263.952814 180.487594 
C 261.719216 175.095213 258.445157 170.195236 254.318007 166.068087 
C 250.190857 161.940937 245.290881 158.666877 239.8985 156.43328 
C 234.506119 154.199683 228.726202 153.049986 222.889531 153.049986 
C 217.05286 153.049986 211.272944 154.199683 205.880563 156.43328 
C 200.488182 158.666877 195.588205 161.940937 191.461056 166.068087 
C 187.333906 170.195236 184.059846 175.095213 181.826249 180.487594 
C 179.592652 185.879975 178.442955 191.659892 178.442955 197.496562 
C 178.442955 203.333233 179.592652 209.11315 181.826249 214.505531 
C 184.059846 219.897912 187.333906 224.797889 191.461056 228.925038 
C 195.588205 233.052188 200.488182 236.326248 205.880563 238.559845 
C 211.272944 240.793442 217.05286 241.943139 222.889531 241.943139 
C 228.726202 241.943139 234.506119 240.793442 239.8985 238.559845 
C 245.290881 236.326248 250.190857 233.052188 254.318007 228.925038 
C 258.445157 224.797889 261.719216 219.897912 263.952814 214.505531 
C 266.186411 209.11315 267.336108 203.333233 267.336108 197.496562 
" clip-path="url(#pb77019e5bd)" style="fill: none; stroke: #b0b0b0; stroke-width: 0.8; stroke-linecap: square"/>
     </g>
     <g id="text_11">
      <!-- 1.0 -->
      <g transform="translate(263.952814 178.407907)scale(0.1 -0.1)">
       <defs>
        <path id="DejaVuSans-31" d="M 794 531 
L 1825 531 
L 1825 4091 
L 703 3866 
L 703 4441 
L 1819 4666 
L 2450 4666 
L 2450 531 
L 3481 531 
L 3481 0 
L 794 0 
L 794 531 
z
" transform="scale(0.015625)"/>
       </defs>
       <use xlink:href="#DejaVuSans-31"/>
       <use xlink:href="#DejaVuSans-2e" x="63.623047"/>
       <use xlink:href="#DejaVuSans-30" x="95.410156"/>
      </g>
     </g>
    </g>
    <g id="ytick_3">
     <g id="line2d_12">
      <path d="M 289.559396 197.496562 
C 289.559396 188.741556 287.834851 180.071681 284.484455 171.98311 
C 281.134059 163.894539 276.222969 156.544573 270.032245 150.353849 
C 263.84152 144.163125 256.491555 139.252035 248.402984 135.901639 
C 240.314413 132.551243 231.644538 130.826698 222.889531 130.826698 
C 214.134525 130.826698 205.46465 132.551243 197.376079 135.901639 
C 189.287507 139.252035 181.937542 144.163125 175.746818 150.353849 
C 169.556093 156.544573 164.645004 163.894539 161.294608 171.98311 
C 157.944212 180.071681 156.219666 188.741556 156.219666 197.496562 
C 156.219666 206.251569 157.944212 214.921444 161.294608 223.010015 
C 164.645004 231.098586 169.556093 238.448552 175.746818 244.639276 
C 181.937542 250.83 189.287507 255.74109 197.376079 259.091486 
C 205.46465 262.441882 214.134525 264.166427 222.889531 264.166427 
C 231.644538 264.166427 240.314413 262.441882 248.402984 259.091486 
C 256.491555 255.74109 263.84152 250.83 270.032245 244.639276 
C 276.222969 238.448552 281.134059 231.098586 284.484455 223.010015 
C 287.834851 214.921444 289.559396 206.251569 289.559396 197.496563 
" clip-path="url(#pb77019e5bd)" style="fill: none; stroke: #b0b0b0; stroke-width: 0.8; stroke-linecap: square"/>
     </g>
     <g id="text_12">
      <!-- 1.5 -->
      <g transform="translate(284.484455 169.903422)scale(0.1 -0.1)">
       <use xlink:href="#DejaVuSans-31"/>
       <use xlink:href="#DejaVuSans-2e" x="63.623047"/>
       <use xlink:href="#DejaVuSans-35" x="95.410156"/>
      </g>
     </g>
    </g>
    <g id="ytick_4">
     <g id="line2d_13">
      <path d="M 311.782684 197.496562 
C 311.782684 185.823221 309.48329 174.263387 305.016096 163.478626 
C 300.548901 152.693864 294.000782 142.89391 285.746483 134.639611 
C 277.492183 126.385312 267.69223 119.837192 256.907468 115.369998 
C 246.122706 110.902803 234.562873 108.603409 222.889531 108.603409 
C 211.216189 108.603409 199.656356 110.902803 188.871594 115.369998 
C 178.086833 119.837192 168.286879 126.385312 160.03258 134.639611 
C 151.778281 142.89391 145.230161 152.693864 140.762967 163.478626 
C 136.295772 174.263387 133.996378 185.823221 133.996378 197.496562 
C 133.996378 209.169904 136.295772 220.729738 140.762967 231.514499 
C 145.230161 242.299261 151.778281 252.099215 160.03258 260.353514 
C 168.286879 268.607813 178.086833 275.155933 188.871594 279.623127 
C 199.656356 284.090322 211.216189 286.389716 222.889531 286.389716 
C 234.562873 286.389716 246.122706 284.090322 256.907468 279.623127 
C 267.69223 275.155933 277.492183 268.607813 285.746483 260.353514 
C 294.000782 252.099215 300.548901 242.299261 305.016096 231.514499 
C 309.48329 220.729738 311.782684 209.169904 311.782684 197.496563 
" clip-path="url(#pb77019e5bd)" style="fill: none; stroke: #b0b0b0; stroke-width: 0.8; stroke-linecap: square"/>
     </g>
     <g id="text_13">
      <!-- 2.0 -->
      <g transform="translate(305.016096 161.398938)scale(0.1 -0.1)">
       <defs>
        <path id="DejaVuSans-32" d="M 1228 531 
L 3431 531 
L 3431 0 
L 469 0 
L 469 531 
Q 828 903 1448 1529 
Q 2069 2156 2228 2338 
Q 2531 2678 2651 2914 
Q 2772 3150 2772 3378 
Q 2772 3750 2511 3984 
Q 2250 4219 1831 4219 
Q 1534 4219 1204 4116 
Q 875 4013 500 3803 
L 500 4441 
Q 881 4594 1212 4672 
Q 1544 4750 1819 4750 
Q 2544 4750 2975 4387 
Q 3406 4025 3406 3419 
Q 3406 3131 3298 2873 
Q 3191 2616 2906 2266 
Q 2828 2175 2409 1742 
Q 1991 1309 1228 531 
z
" transform="scale(0.015625)"/>
       </defs>
       <use xlink:href="#DejaVuSans-32"/>
       <use xlink:href="#DejaVuSans-2e" x="63.623047"/>
       <use xlink:href="#DejaVuSans-30" x="95.410156"/>
      </g>
     </g>
    </g>
    <g id="ytick_5">
     <g id="line2d_14">
      <path d="M 334.005973 197.496562 
C 334.005973 182.904885 331.13173 168.455093 325.547737 154.974141 
C 319.963744 141.493189 311.778594 129.243247 301.46072 118.925373 
C 291.142846 108.607499 278.892904 100.42235 265.411952 94.838357 
C 251.931 89.254364 237.481209 86.380121 222.889531 86.380121 
C 208.297854 86.380121 193.848062 89.254364 180.36711 94.838357 
C 166.886158 100.42235 154.636216 108.607499 144.318342 118.925373 
C 134.000468 129.243247 125.815319 141.493189 120.231325 154.974141 
C 114.647332 168.455093 111.77309 182.904885 111.77309 197.496562 
C 111.77309 212.08824 114.647332 226.538032 120.231325 240.018984 
C 125.815319 253.499936 134.000468 265.749878 144.318342 276.067752 
C 154.636216 286.385626 166.886158 294.570775 180.36711 300.154768 
C 193.848062 305.738761 208.297854 308.613004 222.889531 308.613004 
C 237.481209 308.613004 251.931 305.738761 265.411952 300.154768 
C 278.892904 294.570775 291.142846 286.385626 301.46072 276.067752 
C 311.778594 265.749878 319.963744 253.499936 325.547737 240.018984 
C 331.13173 226.538032 334.005973 212.08824 334.005973 197.496563 
" clip-path="url(#pb77019e5bd)" style="fill: none; stroke: #b0b0b0; stroke-width: 0.8; stroke-linecap: square"/>
     </g>
     <g id="text_14">
      <!-- 2.5 -->
      <g transform="translate(325.547737 152.894454)scale(0.1 -0.1)">
       <use xlink:href="#DejaVuSans-32"/>
       <use xlink:href="#DejaVuSans-2e" x="63.623047"/>
       <use xlink:href="#DejaVuSans-35" x="95.410156"/>
      </g>
     </g>
    </g>
    <g id="ytick_6">
     <g id="line2d_15">
      <path d="M 356.229261 197.496562 
C 356.229261 179.98655 352.78017 162.6468 346.079378 146.469657 
C 339.378586 130.292515 329.556407 115.592584 317.174958 103.211136 
C 304.793509 90.829687 290.093579 81.007507 273.916437 74.306716 
C 257.739294 67.605924 240.399544 64.156833 222.889531 64.156833 
C 205.379518 64.156833 188.039768 67.605924 171.862626 74.306716 
C 155.685483 81.007507 140.985553 90.829687 128.604104 103.211136 
C 116.222655 115.592584 106.400476 130.292515 99.699684 146.469657 
C 92.998892 162.6468 89.549802 179.98655 89.549802 197.496562 
C 89.549802 215.006575 92.998892 232.346325 99.699684 248.523468 
C 106.400476 264.70061 116.222655 279.400541 128.604104 291.781989 
C 140.985553 304.163438 155.685483 313.985618 171.862626 320.686409 
C 188.039768 327.387201 205.379518 330.836292 222.889531 330.836292 
C 240.399544 330.836292 257.739294 327.387201 273.916437 320.686409 
C 290.093579 313.985618 304.793509 304.163438 317.174958 291.781989 
C 329.556407 279.400541 339.378586 264.70061 346.079378 248.523468 
C 352.78017 232.346325 356.229261 215.006575 356.229261 197.496563 
" clip-path="url(#pb77019e5bd)" style="fill: none; stroke: #b0b0b0; stroke-width: 0.8; stroke-linecap: square"/>
     </g>
     <g id="text_15">
      <!-- 3.0 -->
      <g transform="translate(346.079378 144.38997)scale(0.1 -0.1)">
       <defs>
        <path id="DejaVuSans-33" d="M 2597 2516 
Q 3050 2419 3304 2112 
Q 3559 1806 3559 1356 
Q 3559 666 3084 287 
Q 2609 -91 1734 -91 
Q 1441 -91 1130 -33 
Q 819 25 488 141 
L 488 750 
Q 750 597 1062 519 
Q 1375 441 1716 441 
Q 2309 441 2620 675 
Q 2931 909 2931 1356 
Q 2931 1769 2642 2001 
Q 2353 2234 1838 2234 
L 1294 2234 
L 1294 2753 
L 1863 2753 
Q 2328 2753 2575 2939 
Q 2822 3125 2822 3475 
Q 2822 3834 2567 4026 
Q 2313 4219 1838 4219 
Q 1578 4219 1281 4162 
Q 984 4106 628 3988 
L 628 4550 
Q 988 4650 1302 4700 
Q 1616 4750 1894 4750 
Q 2613 4750 3031 4423 
Q 3450 4097 3450 3541 
Q 3450 3153 3228 2886 
Q 3006 2619 2597 2516 
z
" transform="scale(0.015625)"/>
       </defs>
       <use xlink:href="#DejaVuSans-33"/>
       <use xlink:href="#DejaVuSans-2e" x="63.623047"/>
       <use xlink:href="#DejaVuSans-30" x="95.410156"/>
      </g>
     </g>
    </g>
    <g id="ytick_7">
     <g id="line2d_16">
      <path d="M 378.452549 197.496562 
C 378.452549 177.068214 374.42861 156.838506 366.611019 137.965173 
C 358.793429 119.09184 347.33422 101.941921 332.889196 87.496898 
C 318.444172 73.051874 301.294254 61.592665 282.420921 53.775074 
C 263.547588 45.957484 243.31788 41.933545 222.889531 41.933545 
C 202.461183 41.933545 182.231475 45.957484 163.358142 53.775074 
C 144.484809 61.592665 127.33489 73.051874 112.889866 87.496898 
C 98.444843 101.941921 86.985634 119.09184 79.168043 137.965173 
C 71.350453 156.838506 67.326513 177.068214 67.326513 197.496562 
C 67.326513 217.924911 71.350453 238.154619 79.168043 257.027952 
C 86.985634 275.901285 98.444843 293.051204 112.889866 307.496227 
C 127.33489 321.941251 144.484809 333.40046 163.358142 341.218051 
C 182.231475 349.035641 202.461183 353.05958 222.889531 353.05958 
C 243.31788 353.05958 263.547588 349.035641 282.420921 341.218051 
C 301.294254 333.40046 318.444172 321.941251 332.889196 307.496227 
C 347.33422 293.051204 358.793429 275.901285 366.611019 257.027952 
C 374.42861 238.154619 378.452549 217.924911 378.452549 197.496563 
" clip-path="url(#pb77019e5bd)" style="fill: none; stroke: #b0b0b0; stroke-width: 0.8; stroke-linecap: square"/>
     </g>
     <g id="text_16">
      <!-- 3.5 -->
      <g transform="translate(366.611019 135.885485)scale(0.1 -0.1)">
       <use xlink:href="#DejaVuSans-33"/>
       <use xlink:href="#DejaVuSans-2e" x="63.623047"/>
       <use xlink:href="#DejaVuSans-35" x="95.410156"/>
      </g>
     </g>
    </g>
   </g>
   <g id="line2d_17">
    <path d="M 378.842431 197.496562 
L 329.856624 90.52947 
L 222.889531 66.496126 
L 129.155481 103.762512 
L 59.596674 197.496562 
L 136.802837 283.583257 
L 222.889531 353.449463 
L 322.964414 297.571445 
L 378.842431 197.496562 
" clip-path="url(#pb77019e5bd)" style="fill: none; stroke: #66c2a5; stroke-linecap: square"/>
    <defs>
     <path id="mcfb1dda90d" d="M 0 3 
C 0.795609 3 1.55874 2.683901 2.12132 2.12132 
C 2.683901 1.55874 3 0.795609 3 0 
C 3 -0.795609 2.683901 -1.55874 2.12132 -2.12132 
C 1.55874 -2.683901 0.795609 -3 0 -3 
C -0.795609 -3 -1.55874 -2.683901 -2.12132 -2.12132 
C -2.683901 -1.55874 -3 -0.795609 -3 0 
C -3 0.795609 -2.683901 1.55874 -2.12132 2.12132 
C -1.55874 2.683901 -0.795609 3 0 3 
z
" style="stroke: #66c2a5"/>
    </defs>
    <g clip-path="url(#pb77019e5bd)">
     <use xlink:href="#mcfb1dda90d" x="378.842431" y="197.496562" style="fill: #66c2a5; stroke: #66c2a5"/>
     <use xlink:href="#mcfb1dda90d" x="329.856624" y="90.52947" style="fill: #66c2a5; stroke: #66c2a5"/>
     <use xlink:href="#mcfb1dda90d" x="222.889531" y="66.496126" style="fill: #66c2a5; stroke: #66c2a5"/>
     <use xlink:href="#mcfb1dda90d" x="129.155481" y="103.762512" style="fill: #66c2a5; stroke: #66c2a5"/>
     <use xlink:href="#mcfb1dda90d" x="59.596674" y="197.496562" style="fill: #66c2a5; stroke: #66c2a5"/>
     <use xlink:href="#mcfb1dda90d" x="136.802837" y="283.583257" style="fill: #66c2a5; stroke: #66c2a5"/>
     <use xlink:href="#mcfb1dda90d" x="222.889531" y="353.449463" style="fill: #66c2a5; stroke: #66c2a5"/>
     <use xlink:href="#mcfb1dda90d" x="322.964414" y="297.571445" style="fill: #66c2a5; stroke: #66c2a5"/>
     <use xlink:href="#mcfb1dda90d" x="378.842431" y="197.496562" style="fill: #66c2a5; stroke: #66c2a5"/>
    </g>
   </g>
   <g id="line2d_18">
    <path d="M 336.735148 197.496562 
L 270.307933 150.078161 
L 222.889531 124.198699 
L 132.463742 107.070773 
L 118.536699 197.496562 
L 191.461056 228.925038 
L 222.889531 323.818412 
L 305.871734 280.478766 
L 336.735148 197.496562 
" clip-path="url(#pb77019e5bd)" style="fill: none; stroke: #ffa500; stroke-linecap: square"/>
    <defs>
     <path id="m6f68fce4db" d="M 0 3 
C 0.795609 3 1.55874 2.683901 2.12132 2.12132 
C 2.683901 1.55874 3 0.795609 3 0 
C 3 -0.795609 2.683901 -1.55874 2.12132 -2.12132 
C 1.55874 -2.683901 0.795609 -3 0 -3 
C -0.795609 -3 -1.55874 -2.683901 -2.12132 -2.12132 
C -2.683901 -1.55874 -3 -0.795609 -3 0 
C -3 0.795609 -2.683901 1.55874 -2.12132 2.12132 
C -1.55874 2.683901 -0.795609 3 0 3 
z
" style="stroke: #ffa500"/>
    </defs>
    <g clip-path="url(#pb77019e5bd)">
     <use xlink:href="#m6f68fce4db" x="336.735148" y="197.496562" style="fill: #ffa500; stroke: #ffa500"/>
     <use xlink:href="#m6f68fce4db" x="270.307933" y="150.078161" style="fill: #ffa500; stroke: #ffa500"/>
     <use xlink:href="#m6f68fce4db" x="222.889531" y="124.198699" style="fill: #ffa500; stroke: #ffa500"/>
     <use xlink:href="#m6f68fce4db" x="132.463742" y="107.070773" style="fill: #ffa500; stroke: #ffa500"/>
     <use xlink:href="#m6f68fce4db" x="118.536699" y="197.496562" style="fill: #ffa500; stroke: #ffa500"/>
     <use xlink:href="#m6f68fce4db" x="191.461056" y="228.925038" style="fill: #ffa500; stroke: #ffa500"/>
     <use xlink:href="#m6f68fce4db" x="222.889531" y="323.818412" style="fill: #ffa500; stroke: #ffa500"/>
     <use xlink:href="#m6f68fce4db" x="305.871734" y="280.478766" style="fill: #ffa500; stroke: #ffa500"/>
     <use xlink:href="#m6f68fce4db" x="336.735148" y="197.496562" style="fill: #ffa500; stroke: #ffa500"/>
    </g>
   </g>
   <g id="line2d_19">
    <path d="M 326.59821 197.496562 
L 285.746483 134.639611 
L 222.889531 135.115402 
L 182.639027 157.246059 
L 173.611805 197.496562 
L 176.430046 243.956048 
L 222.889531 285.609951 
L 306.6988 281.305831 
L 326.59821 197.496562 
" clip-path="url(#pb77019e5bd)" style="fill: none; stroke: #8da0cb; stroke-linecap: square"/>
    <defs>
     <path id="m850b3e4909" d="M 0 3 
C 0.795609 3 1.55874 2.683901 2.12132 2.12132 
C 2.683901 1.55874 3 0.795609 3 0 
C 3 -0.795609 2.683901 -1.55874 2.12132 -2.12132 
C 1.55874 -2.683901 0.795609 -3 0 -3 
C -0.795609 -3 -1.55874 -2.683901 -2.12132 -2.12132 
C -2.683901 -1.55874 -3 -0.795609 -3 0 
C -3 0.795609 -2.683901 1.55874 -2.12132 2.12132 
C -1.55874 2.683901 -0.795609 3 0 3 
z
" style="stroke: #8da0cb"/>
    </defs>
    <g clip-path="url(#pb77019e5bd)">
     <use xlink:href="#m850b3e4909" x="326.59821" y="197.496562" style="fill: #8da0cb; stroke: #8da0cb"/>
     <use xlink:href="#m850b3e4909" x="285.746483" y="134.639611" style="fill: #8da0cb; stroke: #8da0cb"/>
     <use xlink:href="#m850b3e4909" x="222.889531" y="135.115402" style="fill: #8da0cb; stroke: #8da0cb"/>
     <use xlink:href="#m850b3e4909" x="182.639027" y="157.246059" style="fill: #8da0cb; stroke: #8da0cb"/>
     <use xlink:href="#m850b3e4909" x="173.611805" y="197.496562" style="fill: #8da0cb; stroke: #8da0cb"/>
     <use xlink:href="#m850b3e4909" x="176.430046" y="243.956048" style="fill: #8da0cb; stroke: #8da0cb"/>
     <use xlink:href="#m850b3e4909" x="222.889531" y="285.609951" style="fill: #8da0cb; stroke: #8da0cb"/>
     <use xlink:href="#m850b3e4909" x="306.6988" y="281.305831" style="fill: #8da0cb; stroke: #8da0cb"/>
     <use xlink:href="#m850b3e4909" x="326.59821" y="197.496562" style="fill: #8da0cb; stroke: #8da0cb"/>
    </g>
   </g>
   <g id="line2d_20">
    <path d="M 293.848101 197.496562 
L 308.904307 111.481787 
L 222.889531 197.496562 
L 133.015118 107.62215 
L 95.347181 197.496562 
L 222.889531 197.496562 
L 222.889531 271.57419 
L 270.307933 244.914964 
L 293.848101 197.496562 
" clip-path="url(#pb77019e5bd)" style="fill: none; stroke: #e78ac3; stroke-linecap: square"/>
    <defs>
     <path id="mfcef55a927" d="M 0 3 
C 0.795609 3 1.55874 2.683901 2.12132 2.12132 
C 2.683901 1.55874 3 0.795609 3 0 
C 3 -0.795609 2.683901 -1.55874 2.12132 -2.12132 
C 1.55874 -2.683901 0.795609 -3 0 -3 
C -0.795609 -3 -1.55874 -2.683901 -2.12132 -2.12132 
C -2.683901 -1.55874 -3 -0.795609 -3 0 
C -3 0.795609 -2.683901 1.55874 -2.12132 2.12132 
C -1.55874 2.683901 -0.795609 3 0 3 
z
" style="stroke: #e78ac3"/>
    </defs>
    <g clip-path="url(#pb77019e5bd)">
     <use xlink:href="#mfcef55a927" x="293.848101" y="197.496562" style="fill: #e78ac3; stroke: #e78ac3"/>
     <use xlink:href="#mfcef55a927" x="308.904307" y="111.481787" style="fill: #e78ac3; stroke: #e78ac3"/>
     <use xlink:href="#mfcef55a927" x="222.889531" y="197.496562" style="fill: #e78ac3; stroke: #e78ac3"/>
     <use xlink:href="#mfcef55a927" x="133.015118" y="107.62215" style="fill: #e78ac3; stroke: #e78ac3"/>
     <use xlink:href="#mfcef55a927" x="95.347181" y="197.496562" style="fill: #e78ac3; stroke: #e78ac3"/>
     <use xlink:href="#mfcef55a927" x="222.889531" y="197.496562" style="fill: #e78ac3; stroke: #e78ac3"/>
     <use xlink:href="#mfcef55a927" x="222.889531" y="271.57419" style="fill: #e78ac3; stroke: #e78ac3"/>
     <use xlink:href="#mfcef55a927" x="270.307933" y="244.914964" style="fill: #e78ac3; stroke: #e78ac3"/>
     <use xlink:href="#mfcef55a927" x="293.848101" y="197.496562" style="fill: #e78ac3; stroke: #e78ac3"/>
    </g>
   </g>
   <g id="patch_8">
    <path d="M 394.347031 197.496562 
C 394.347031 174.98097 389.91195 152.684313 381.295606 131.882618 
C 372.679262 111.080923 360.04922 92.17873 344.128292 76.257802 
C 328.207364 60.336873 309.305171 47.706832 288.503476 39.090488 
C 267.701781 30.474143 245.405124 26.039062 222.889531 26.039062 
C 200.373939 26.039062 178.077282 30.474143 157.275587 39.090488 
C 136.473891 47.706832 117.571699 60.336873 101.65077 76.257802 
C 85.729842 92.17873 73.099801 111.080923 64.483456 131.882618 
C 55.867112 152.684313 51.432031 174.98097 51.432031 197.496562 
C 51.432031 220.012155 55.867112 242.308812 64.483456 263.110507 
C 73.099801 283.912202 85.729842 302.814395 101.65077 318.735323 
C 117.571699 334.656252 136.473891 347.286293 157.275587 355.902637 
C 178.077282 364.518982 200.373939 368.954062 222.889531 368.954062 
C 245.405124 368.954062 267.701781 364.518982 288.503476 355.902637 
C 309.305171 347.286293 328.207364 334.656252 344.128292 318.735323 
C 360.04922 302.814395 372.679262 283.912202 381.295606 263.110507 
C 389.91195 242.308812 394.347031 220.012155 394.347031 197.496563 
" style="fill: none; stroke: #000000; stroke-width: 0.8; stroke-linejoin: miter; stroke-linecap: square"/>
   </g>
   <g id="legend_1">
    <g id="patch_9">
     <path d="M 384.782469 332.792062 
L 490.221531 332.792062 
Q 492.221531 332.792062 492.221531 330.792062 
L 492.221531 273.079562 
Q 492.221531 271.079562 490.221531 271.079562 
L 384.782469 271.079562 
Q 382.782469 271.079562 382.782469 273.079562 
L 382.782469 330.792062 
Q 382.782469 332.792062 384.782469 332.792062 
z
" style="fill: #ffffff; opacity: 0.8; stroke: #cccccc; stroke-linejoin: miter"/>
    </g>
    <g id="line2d_21">
     <path d="M 386.782469 279.178 
L 396.782469 279.178 
L 406.782469 279.178 
" style="fill: none; stroke: #66c2a5; stroke-linecap: square"/>
     <g>
      <use xlink:href="#mcfb1dda90d" x="396.782469" y="279.178" style="fill: #66c2a5; stroke: #66c2a5"/>
     </g>
    </g>
    <g id="text_17">
     <!-- Lux (32.74) -->
     <g transform="translate(414.782469 282.678)scale(0.1 -0.1)">
      <defs>
       <path id="DejaVuSans-4c" d="M 628 4666 
L 1259 4666 
L 1259 531 
L 3531 531 
L 3531 0 
L 628 0 
L 628 4666 
z
" transform="scale(0.015625)"/>
       <path id="DejaVuSans-78" d="M 3513 3500 
L 2247 1797 
L 3578 0 
L 2900 0 
L 1881 1375 
L 863 0 
L 184 0 
L 1544 1831 
L 300 3500 
L 978 3500 
L 1906 2253 
L 2834 3500 
L 3513 3500 
z
" transform="scale(0.015625)"/>
       <path id="DejaVuSans-28" d="M 1984 4856 
Q 1566 4138 1362 3434 
Q 1159 2731 1159 2009 
Q 1159 1288 1364 580 
Q 1569 -128 1984 -844 
L 1484 -844 
Q 1016 -109 783 600 
Q 550 1309 550 2009 
Q 550 2706 781 3412 
Q 1013 4119 1484 4856 
L 1984 4856 
z
" transform="scale(0.015625)"/>
       <path id="DejaVuSans-37" d="M 525 4666 
L 3525 4666 
L 3525 4397 
L 1831 0 
L 1172 0 
L 2766 4134 
L 525 4134 
L 525 4666 
z
" transform="scale(0.015625)"/>
       <path id="DejaVuSans-34" d="M 2419 4116 
L 825 1625 
L 2419 1625 
L 2419 4116 
z
M 2253 4666 
L 3047 4666 
L 3047 1625 
L 3713 1625 
L 3713 1100 
L 3047 1100 
L 3047 0 
L 2419 0 
L 2419 1100 
L 313 1100 
L 313 1709 
L 2253 4666 
z
" transform="scale(0.015625)"/>
       <path id="DejaVuSans-29" d="M 513 4856 
L 1013 4856 
Q 1481 4119 1714 3412 
Q 1947 2706 1947 2009 
Q 1947 1309 1714 600 
Q 1481 -109 1013 -844 
L 513 -844 
Q 928 -128 1133 580 
Q 1338 1288 1338 2009 
Q 1338 2731 1133 3434 
Q 928 4138 513 4856 
z
" transform="scale(0.015625)"/>
      </defs>
      <use xlink:href="#DejaVuSans-4c"/>
      <use xlink:href="#DejaVuSans-75" x="53.962891"/>
      <use xlink:href="#DejaVuSans-78" x="117.341797"/>
      <use xlink:href="#DejaVuSans-20" x="176.521484"/>
      <use xlink:href="#DejaVuSans-28" x="208.308594"/>
      <use xlink:href="#DejaVuSans-33" x="247.322266"/>
      <use xlink:href="#DejaVuSans-32" x="310.945312"/>
      <use xlink:href="#DejaVuSans-2e" x="374.568359"/>
      <use xlink:href="#DejaVuSans-37" x="406.355469"/>
      <use xlink:href="#DejaVuSans-34" x="469.978516"/>
      <use xlink:href="#DejaVuSans-29" x="533.601562"/>
     </g>
    </g>
    <g id="line2d_22">
     <path d="M 386.782469 293.856125 
L 396.782469 293.856125 
L 406.782469 293.856125 
" style="fill: none; stroke: #ffa500; stroke-linecap: square"/>
     <g>
      <use xlink:href="#m6f68fce4db" x="396.782469" y="293.856125" style="fill: #ffa500; stroke: #ffa500"/>
     </g>
    </g>
    <g id="text_18">
     <!-- Lore (14.58) -->
     <g transform="translate(414.782469 297.356125)scale(0.1 -0.1)">
      <defs>
       <path id="DejaVuSans-38" d="M 2034 2216 
Q 1584 2216 1326 1975 
Q 1069 1734 1069 1313 
Q 1069 891 1326 650 
Q 1584 409 2034 409 
Q 2484 409 2743 651 
Q 3003 894 3003 1313 
Q 3003 1734 2745 1975 
Q 2488 2216 2034 2216 
z
M 1403 2484 
Q 997 2584 770 2862 
Q 544 3141 544 3541 
Q 544 4100 942 4425 
Q 1341 4750 2034 4750 
Q 2731 4750 3128 4425 
Q 3525 4100 3525 3541 
Q 3525 3141 3298 2862 
Q 3072 2584 2669 2484 
Q 3125 2378 3379 2068 
Q 3634 1759 3634 1313 
Q 3634 634 3220 271 
Q 2806 -91 2034 -91 
Q 1263 -91 848 271 
Q 434 634 434 1313 
Q 434 1759 690 2068 
Q 947 2378 1403 2484 
z
M 1172 3481 
Q 1172 3119 1398 2916 
Q 1625 2713 2034 2713 
Q 2441 2713 2670 2916 
Q 2900 3119 2900 3481 
Q 2900 3844 2670 4047 
Q 2441 4250 2034 4250 
Q 1625 4250 1398 4047 
Q 1172 3844 1172 3481 
z
" transform="scale(0.015625)"/>
      </defs>
      <use xlink:href="#DejaVuSans-4c"/>
      <use xlink:href="#DejaVuSans-6f" x="53.962891"/>
      <use xlink:href="#DejaVuSans-72" x="115.144531"/>
      <use xlink:href="#DejaVuSans-65" x="154.007812"/>
      <use xlink:href="#DejaVuSans-20" x="215.53125"/>
      <use xlink:href="#DejaVuSans-28" x="247.318359"/>
      <use xlink:href="#DejaVuSans-31" x="286.332031"/>
      <use xlink:href="#DejaVuSans-34" x="349.955078"/>
      <use xlink:href="#DejaVuSans-2e" x="413.578125"/>
      <use xlink:href="#DejaVuSans-35" x="445.365234"/>
      <use xlink:href="#DejaVuSans-38" x="508.988281"/>
      <use xlink:href="#DejaVuSans-29" x="572.611328"/>
     </g>
    </g>
    <g id="line2d_23">
     <path d="M 386.782469 308.53425 
L 396.782469 308.53425 
L 406.782469 308.53425 
" style="fill: none; stroke: #8da0cb; stroke-linecap: square"/>
     <g>
      <use xlink:href="#m850b3e4909" x="396.782469" y="308.53425" style="fill: #8da0cb; stroke: #8da0cb"/>
     </g>
    </g>
    <g id="text_19">
     <!-- Explan (10.46) -->
     <g transform="translate(414.782469 312.03425)scale(0.1 -0.1)">
      <defs>
       <path id="DejaVuSans-45" d="M 628 4666 
L 3578 4666 
L 3578 4134 
L 1259 4134 
L 1259 2753 
L 3481 2753 
L 3481 2222 
L 1259 2222 
L 1259 531 
L 3634 531 
L 3634 0 
L 628 0 
L 628 4666 
z
" transform="scale(0.015625)"/>
       <path id="DejaVuSans-36" d="M 2113 2584 
Q 1688 2584 1439 2293 
Q 1191 2003 1191 1497 
Q 1191 994 1439 701 
Q 1688 409 2113 409 
Q 2538 409 2786 701 
Q 3034 994 3034 1497 
Q 3034 2003 2786 2293 
Q 2538 2584 2113 2584 
z
M 3366 4563 
L 3366 3988 
Q 3128 4100 2886 4159 
Q 2644 4219 2406 4219 
Q 1781 4219 1451 3797 
Q 1122 3375 1075 2522 
Q 1259 2794 1537 2939 
Q 1816 3084 2150 3084 
Q 2853 3084 3261 2657 
Q 3669 2231 3669 1497 
Q 3669 778 3244 343 
Q 2819 -91 2113 -91 
Q 1303 -91 875 529 
Q 447 1150 447 2328 
Q 447 3434 972 4092 
Q 1497 4750 2381 4750 
Q 2619 4750 2861 4703 
Q 3103 4656 3366 4563 
z
" transform="scale(0.015625)"/>
      </defs>
      <use xlink:href="#DejaVuSans-45"/>
      <use xlink:href="#DejaVuSans-78" x="63.183594"/>
      <use xlink:href="#DejaVuSans-70" x="122.363281"/>
      <use xlink:href="#DejaVuSans-6c" x="185.839844"/>
      <use xlink:href="#DejaVuSans-61" x="213.623047"/>
      <use xlink:href="#DejaVuSans-6e" x="274.902344"/>
      <use xlink:href="#DejaVuSans-20" x="338.28125"/>
      <use xlink:href="#DejaVuSans-28" x="370.068359"/>
      <use xlink:href="#DejaVuSans-31" x="409.082031"/>
      <use xlink:href="#DejaVuSans-30" x="472.705078"/>
      <use xlink:href="#DejaVuSans-2e" x="536.328125"/>
      <use xlink:href="#DejaVuSans-34" x="568.115234"/>
      <use xlink:href="#DejaVuSans-36" x="631.738281"/>
      <use xlink:href="#DejaVuSans-29" x="695.361328"/>
     </g>
    </g>
    <g id="line2d_24">
     <path d="M 386.782469 323.212375 
L 396.782469 323.212375 
L 406.782469 323.212375 
" style="fill: none; stroke: #e78ac3; stroke-linecap: square"/>
     <g>
      <use xlink:href="#mfcef55a927" x="396.782469" y="323.212375" style="fill: #e78ac3; stroke: #e78ac3"/>
     </g>
    </g>
    <g id="text_20">
     <!-- Anchor (6.84) -->
     <g transform="translate(414.782469 326.712375)scale(0.1 -0.1)">
      <defs>
       <path id="DejaVuSans-68" d="M 3513 2113 
L 3513 0 
L 2938 0 
L 2938 2094 
Q 2938 2591 2744 2837 
Q 2550 3084 2163 3084 
Q 1697 3084 1428 2787 
Q 1159 2491 1159 1978 
L 1159 0 
L 581 0 
L 581 4863 
L 1159 4863 
L 1159 2956 
Q 1366 3272 1645 3428 
Q 1925 3584 2291 3584 
Q 2894 3584 3203 3211 
Q 3513 2838 3513 2113 
z
" transform="scale(0.015625)"/>
      </defs>
      <use xlink:href="#DejaVuSans-41"/>
      <use xlink:href="#DejaVuSans-6e" x="68.408203"/>
      <use xlink:href="#DejaVuSans-63" x="131.787109"/>
      <use xlink:href="#DejaVuSans-68" x="186.767578"/>
      <use xlink:href="#DejaVuSans-6f" x="250.146484"/>
      <use xlink:href="#DejaVuSans-72" x="311.328125"/>
      <use xlink:href="#DejaVuSans-20" x="352.441406"/>
      <use xlink:href="#DejaVuSans-28" x="384.228516"/>
      <use xlink:href="#DejaVuSans-36" x="423.242188"/>
      <use xlink:href="#DejaVuSans-2e" x="486.865234"/>
      <use xlink:href="#DejaVuSans-38" x="518.652344"/>
      <use xlink:href="#DejaVuSans-34" x="582.275391"/>
      <use xlink:href="#DejaVuSans-29" x="645.898438"/>
     </g>
    </g>
   </g>
  </g>
 </g>
 <defs>
  <clipPath id="pb77019e5bd">
   <path d="M 394.347031 197.496562 
C 394.347031 174.98097 389.91195 152.684313 381.295606 131.882618 
C 372.679262 111.080923 360.04922 92.17873 344.128292 76.257802 
C 328.207364 60.336873 309.305171 47.706832 288.503476 39.090488 
C 267.701781 30.474143 245.405124 26.039062 222.889531 26.039062 
C 200.373939 26.039062 178.077282 30.474143 157.275587 39.090488 
C 136.473891 47.706832 117.571699 60.336873 101.65077 76.257802 
C 85.729842 92.17873 73.099801 111.080923 64.483456 131.882618 
C 55.867112 152.684313 51.432031 174.98097 51.432031 197.496562 
C 51.432031 220.012155 55.867112 242.308812 64.483456 263.110507 
C 73.099801 283.912202 85.729842 302.814395 101.65077 318.735323 
C 117.571699 334.656252 136.473891 347.286293 157.275587 355.902637 
C 178.077282 364.518982 200.373939 368.954062 222.889531 368.954062 
C 245.405124 368.954062 267.701781 364.518982 288.503476 355.902637 
C 309.305171 347.286293 328.207364 334.656252 344.128292 318.735323 
C 360.04922 302.814395 372.679262 283.912202 381.295606 263.110507 
C 389.91195 242.308812 394.347031 220.012155 394.347031 197.496563 
M 222.889531 197.496562 
C 222.889531 197.496562 222.889531 197.496562 222.889531 197.496562 
C 222.889531 197.496562 222.889531 197.496562 222.889531 197.496562 
C 222.889531 197.496562 222.889531 197.496562 222.889531 197.496562 
C 222.889531 197.496562 222.889531 197.496562 222.889531 197.496562 
C 222.889531 197.496562 222.889531 197.496562 222.889531 197.496562 
C 222.889531 197.496562 222.889531 197.496562 222.889531 197.496562 
C 222.889531 197.496562 222.889531 197.496562 222.889531 197.496562 
C 222.889531 197.496562 222.889531 197.496562 222.889531 197.496562 
C 222.889531 197.496562 222.889531 197.496562 222.889531 197.496562 
C 222.889531 197.496562 222.889531 197.496562 222.889531 197.496562 
C 222.889531 197.496562 222.889531 197.496562 222.889531 197.496562 
C 222.889531 197.496562 222.889531 197.496562 222.889531 197.496562 
C 222.889531 197.496562 222.889531 197.496562 222.889531 197.496562 
C 222.889531 197.496562 222.889531 197.496562 222.889531 197.496562 
C 222.889531 197.496562 222.889531 197.496562 222.889531 197.496562 
C 222.889531 197.496562 222.889531 197.496562 222.889531 197.496562 
M 394.347031 197.496562 
z
"/>
  </clipPath>
 </defs>
</svg>
